# xmcd CD database file
#
# Track frame offsets:
#	150
#	15064
#	31445
#	46465
#	61613
#	75076
#	89176
#	105702
#	121041
#	136701
#	151609
#	166440
#
# Disc length: 2412 seconds
#
# Revision: 1
# Processed by: cddbd v1.4PL0 Copyright (c) Steve Scherf et al.
# Submitted via: jetAudio 5
#
DISCID=7b096a0c
DTITLE=ใหม่ เจริญปุระ - MAI starring on stage  พุ่มพวงในดวงใจ ๒
DYEAR=1900
DGENRE=
TTITLE0=ดาวเรืองดาวโรย
TTITLE1=หนูไม่รู้
TTITLE2=นอนฟังเครื่องไฟ
TTITLE3=แก้วรอพี่
TTITLE4=คิดถึงบ้างเน้อ
TTITLE5=ส่งแฟนขึ้นรถ
TTITLE6=อายแสงนีออน
TTITLE7=หนูไม่เอา
TTITLE8=ขุดดินแช่ง
TTITLE9=อีกหน่อยก็ลืม
TTITLE10=รู้แล้ว รู้แล้ว
TTITLE11=กะลาทาสี
EXTD=
EXTT0=พุ่มพวงในดวงใจ 2
EXTT1=พุ่มพวงในดวงใจ 2
EXTT2=พุ่มพวงในดวงใจ 2
EXTT3=พุ่มพวงในดวงใจ 2
EXTT4=พุ่มพวงในดวงใจ 2
EXTT5=พุ่มพวงในดวงใจ 2
EXTT6=พุ่มพวงในดวงใจ 2
EXTT7=พุ่มพวงในดวงใจ 2
EXTT8=พุ่มพวงในดวงใจ 2
EXTT9=พุ่มพวงในดวงใจ 2
EXTT10=พุ่มพวงในดวงใจ 2
EXTT11=พุ่มพวงในดวงใจ 2
PLAYORDER=
